<svg width="45" height="33" viewBox="0 0 45 33" fill="none" xmlns="http://www.w3.org/2000/svg">
<path d="M26.6598 20.8618H17.9104V5.13794H26.6599L26.6598 20.8618Z" fill="#EEEEEE"/>
<path d="M38.4627 13C38.4627 18.5229 33.9863 23 28.464 23C26.222 23.0033 24.0444 22.25 22.2837 20.8619C24.6099 19.0309 26.1033 16.1897 26.1033 13C26.1033 9.81027 24.6099 6.96914 22.2837 5.13809C24.0444 3.75008 26.2219 2.99676 28.4639 3.00001C33.9861 3.00001 38.4626 7.47709 38.4626 13" fill="white"/>
<path d="M18.465 13C18.465 9.81043 19.9584 6.96914 22.284 5.13809C20.5237 3.75004 18.3464 2.9967 16.1047 3.00001C10.5824 3.00001 6.10596 7.47709 6.10596 13C6.10596 18.5229 10.5824 23 16.1047 23C18.3465 23.0033 20.5238 22.25 22.2842 20.8619C19.9588 19.0312 18.465 16.1897 18.465 13Z" fill="#562348"/>
<path d="M44.1171 32.5492V32.634H44.2001C44.2157 32.6343 44.2311 32.6305 44.2447 32.6232C44.2501 32.6196 44.2545 32.6147 44.2574 32.609C44.2603 32.6034 44.2617 32.5971 44.2614 32.5908C44.2617 32.5846 44.2603 32.5784 44.2573 32.5729C44.2544 32.5674 44.2501 32.5626 44.2447 32.5592C44.2313 32.5515 44.2158 32.5477 44.2001 32.5484H44.1171V32.5492ZM44.201 32.4892C44.2366 32.4871 44.2719 32.4969 44.3008 32.5168C44.3124 32.5258 44.3216 32.5373 44.3276 32.5503C44.3337 32.5634 44.3365 32.5776 44.3357 32.5918C44.3363 32.6041 44.334 32.6163 44.3292 32.6277C44.3244 32.6391 44.317 32.6493 44.3077 32.6578C44.2854 32.6762 44.2574 32.6873 44.228 32.6894L44.3393 32.8103H44.2536L44.1512 32.6902H44.118V32.8103H44.0463V32.4894H44.2022L44.201 32.4892ZM44.1788 32.921C44.2164 32.9213 44.2536 32.9141 44.2881 32.8997C44.3213 32.8861 44.3515 32.8666 44.3772 32.8423C44.4028 32.818 44.4233 32.7892 44.4375 32.7575C44.4667 32.6902 44.4667 32.6147 44.4375 32.5475C44.4231 32.5159 44.4026 32.4871 44.3772 32.4627C44.3515 32.4384 44.3213 32.4189 44.2881 32.4052C44.2534 32.3917 44.2162 32.3849 44.1788 32.3853C44.1407 32.3849 44.1028 32.3917 44.0674 32.4052C44.0335 32.4186 44.0025 32.4381 43.9764 32.4627C43.937 32.5012 43.9104 32.5498 43.8998 32.6026C43.8892 32.6554 43.8952 32.71 43.9169 32.7596C43.9305 32.7914 43.9507 32.8203 43.9764 32.8444C44.0026 32.869 44.0335 32.8885 44.0674 32.9019C44.1026 32.9162 44.1405 32.9234 44.1788 32.9231M44.1788 32.3081C44.2766 32.308 44.3706 32.3446 44.4404 32.4099C44.474 32.4412 44.5008 32.4787 44.5192 32.5199C44.5382 32.5623 44.5481 32.608 44.5481 32.6541C44.5481 32.7002 44.5382 32.7458 44.5192 32.7882C44.5004 32.8293 44.4737 32.8666 44.4404 32.8983C44.4062 32.9295 44.3665 32.9546 44.3231 32.9725C44.2774 32.9909 44.2283 33.0003 44.1788 33C44.1286 33.0004 44.0789 32.991 44.0327 32.9725C43.9888 32.955 43.9487 32.9298 43.9145 32.8983C43.8812 32.8654 43.8548 32.8269 43.8368 32.7846C43.8177 32.7422 43.8079 32.6966 43.8079 32.6505C43.8079 32.6044 43.8177 32.5587 43.8368 32.5163C43.8551 32.4751 43.8819 32.4376 43.9156 32.4063C43.9493 32.3742 43.9895 32.3489 44.0338 32.3321C44.08 32.3135 44.1297 32.3041 44.1799 32.3045M10.0853 31.069C10.0853 30.4572 10.5062 29.9547 11.194 29.9547C11.8512 29.9547 12.2948 30.4356 12.2948 31.069C12.2948 31.7025 11.8512 32.1834 11.194 32.1834C10.5062 32.1834 10.0853 31.6808 10.0853 31.069M13.044 31.069V29.328H12.2494V29.7521C11.9973 29.4387 11.615 29.2421 11.0951 29.2421C10.0709 29.2421 9.26708 30.0072 9.26708 31.0699C9.26708 32.1325 10.0704 32.8976 11.0951 32.8976C11.6148 32.8976 11.9973 32.7008 12.2494 32.3876V32.8103H13.0431V31.069H13.044ZM39.8948 31.069C39.8948 30.4572 40.3156 29.9547 41.0037 29.9547C41.6616 29.9547 42.1045 30.4356 42.1045 31.069C42.1045 31.7025 41.6616 32.1834 41.0037 32.1834C40.3159 32.1834 39.8948 31.6808 39.8948 31.069ZM42.8544 31.069V27.9305H42.0591V29.7521C41.807 29.4387 41.4247 29.2421 40.9048 29.2421C39.8806 29.2421 39.0768 30.0072 39.0768 31.0699C39.0768 32.1325 39.8801 32.8976 40.9048 32.8976C41.4247 32.8976 41.807 32.7008 42.0591 32.3876V32.8103H42.8544V31.069ZM22.9069 29.9188C23.419 29.9188 23.7479 30.2246 23.8318 30.763H21.9357C22.0205 30.2604 22.3409 29.9188 22.9071 29.9188M22.9229 29.2402C21.8519 29.2402 21.1027 29.9824 21.1027 31.068C21.1027 32.1747 21.882 32.8957 22.9761 32.8957C23.5266 32.8957 24.0307 32.7649 24.4742 32.408L24.0848 31.8471C23.7784 32.0803 23.3883 32.2112 23.0216 32.2112C22.5095 32.2112 22.0432 31.9853 21.9285 31.3587H24.6421C24.6499 31.2645 24.6579 31.1695 24.6579 31.0678C24.6499 29.9826 23.9454 29.24 22.9225 29.24M32.5168 31.0678C32.5168 30.456 32.9377 29.9534 33.6254 29.9534C34.2827 29.9534 34.7263 30.4343 34.7263 31.0678C34.7263 31.7012 34.2827 32.1821 33.6254 32.1821C32.9377 32.1821 32.5166 31.6796 32.5166 31.0678M35.4753 31.0678V29.328H34.6811V29.7521C34.4281 29.4387 34.0467 29.2421 33.5268 29.2421C32.5026 29.2421 31.6988 30.0072 31.6988 31.0699C31.6988 32.1325 32.5021 32.8976 33.5268 32.8976C34.0467 32.8976 34.4281 32.7008 34.6811 32.3876V32.8103H35.4755V31.069L35.4753 31.0678ZM28.0291 31.0678C28.0291 32.1236 28.8009 32.8955 29.9787 32.8955C30.5292 32.8955 30.8959 32.7789 31.2924 32.4805L30.9108 31.8687C30.6124 32.0729 30.2991 32.1821 29.9534 32.1821C29.319 32.1747 28.8525 31.7379 28.8525 31.0678C28.8525 30.3976 29.319 29.961 29.9534 29.9534C30.2983 29.9534 30.6115 30.0626 30.9108 30.2668L31.2924 29.655C30.8952 29.3566 30.5285 29.24 29.9787 29.24C28.8009 29.24 28.0291 30.0117 28.0291 31.0678M38.2737 29.24C37.8152 29.24 37.5166 29.4442 37.3102 29.75V29.328H36.5227V32.8083H37.3182V30.8574C37.3182 30.2814 37.5781 29.9614 38.0975 29.9614C38.2676 29.9591 38.4365 29.9889 38.5945 30.049L38.8394 29.3357C38.6635 29.2697 38.4342 29.2406 38.2732 29.2406M16.9728 29.6048C16.5905 29.3647 16.0637 29.2406 15.4826 29.2406C14.5568 29.2406 13.9607 29.6633 13.9607 30.3548C13.9607 30.9223 14.4045 31.2724 15.2216 31.3816L15.597 31.4325C16.0328 31.4908 16.2385 31.6 16.2385 31.7966C16.2385 32.0657 15.9491 32.2192 15.4055 32.2192C14.8551 32.2192 14.4579 32.0517 14.1901 31.8551L13.8167 32.4453C14.2524 32.7511 14.8028 32.897 15.3989 32.897C16.4543 32.897 17.0659 32.4237 17.0659 31.761C17.0659 31.1492 16.5845 30.8292 15.7892 30.72L15.4147 30.6682C15.0707 30.6258 14.795 30.5599 14.795 30.3266C14.795 30.0721 15.0549 29.919 15.4908 29.919C15.9573 29.919 16.4088 30.0866 16.6302 30.2174L16.9742 29.6056L16.9728 29.6048ZM27.2265 29.2413C26.768 29.2413 26.4694 29.4455 26.2639 29.7513V29.328H25.4764V32.8083H26.271V30.8574C26.271 30.2814 26.5309 29.9614 27.0503 29.9614C27.2204 29.9591 27.3894 29.9889 27.5473 30.049L27.7922 29.3357C27.6163 29.2697 27.387 29.2406 27.226 29.2406M20.4452 29.328H19.1458V28.2722H18.3424V29.328H17.6012V30.0198H18.3424V31.6075C18.3424 32.415 18.6715 32.8959 19.6116 32.8959C19.9565 32.8959 20.3537 32.7941 20.6057 32.6268L20.3762 31.9788C20.139 32.1096 19.8792 32.1756 19.6726 32.1756C19.2753 32.1756 19.1458 31.9423 19.1458 31.593V30.0204H20.4452V29.328ZM8.56437 32.8092V30.625C8.56437 29.8024 8.01396 29.2489 7.12667 29.2415C6.6602 29.2341 6.17903 29.3723 5.84215 29.8607C5.5901 29.4748 5.19288 29.2415 4.63445 29.2415C4.24413 29.2415 3.86272 29.3507 3.56413 29.7583V29.328H2.7688V32.8083H3.57037V30.8786C3.57037 30.2744 3.92217 29.9534 4.46545 29.9534C4.99315 29.9534 5.26012 30.281 5.26012 30.871V32.8079H6.06347V30.8782C6.06347 30.274 6.43019 29.953 6.95767 29.953C7.50029 29.953 7.75924 30.2806 7.75924 30.8705V32.8075L8.56437 32.8092Z" fill="#231F20"/>
<path d="M44.5702 21.232V20.723H44.4311L44.2701 21.0723L44.11 20.723H43.9704V21.232H44.0692V20.8486L44.2198 21.1794H44.3222L44.4727 20.8477V21.232H44.5707H44.5702ZM43.6874 21.232V20.8102H43.8655V20.7243H43.4104V20.8102H43.5885V21.232H43.6865H43.6874Z" fill="#F79410"/>
<path d="M28.7531 23.4146H16.7104V2.80237H28.7534L28.7531 23.4146Z" fill="#FF5F00"/>
<path d="M17.474 13.1089C17.474 8.92774 19.5296 5.20312 22.7305 2.80281C20.3076 0.983224 17.3107 -0.00432787 14.2252 1.42578e-05C6.62429 1.42578e-05 0.462891 5.86899 0.462891 13.1089C0.462891 20.3489 6.62429 26.2178 14.2252 26.2178C17.3108 26.2222 20.3077 25.2347 22.7307 23.415C19.53 21.0152 17.474 17.2903 17.474 13.1089Z" fill="#EB001B"/>
<path d="M45.0001 13.109C45.0001 20.349 38.8387 26.218 31.2379 26.218C28.1519 26.2223 25.1547 25.2347 22.7312 23.4152C25.933 21.0149 27.9886 17.2904 27.9886 13.109C27.9886 8.92765 25.933 5.20324 22.7312 2.80293C25.1546 0.983401 28.1517 -0.00412969 31.2376 0.000135831C38.8385 0.000135831 44.9999 5.86911 44.9999 13.109" fill="#F79E1B"/>
</svg>
